REM DIRINDEX 1\6,1\2\7,1\2\8,1\2\9,1\3\10,1\3\11,1\4\12,1\4\13,1\4\14,1\5\15,1\5\16,1\5\17
REM DIRNAME cjc041,folder01,folder02,folder03,folder04,folder05,folder06,folder07,folder08,folder09,folder10,folder11,folder12,folder13,folder14,folder15,folder16
TITLE ""
FILE "3Q_t2_0545-0560.mp3" MP3
  TRACK 01 AUDIO
    TITLE "7:cjc041_5051"
    INDEX 01 00:00:00
  TRACK 02 AUDIO
    TITLE "0:"
    INDEX 01 00:01:15
  TRACK 03 AUDIO
    TITLE "8:cjc041_5052"
    INDEX 01 00:01:73
  TRACK 04 AUDIO
    TITLE "0:"
    INDEX 01 00:03:31
  TRACK 05 AUDIO
    TITLE "9:cjc041_5053"
    INDEX 01 00:04:11
  TRACK 06 AUDIO
    TITLE "0:"
    INDEX 01 00:05:38
  TRACK 07 AUDIO
    TITLE "7:cjc041_5054"
    INDEX 01 00:07:13
  TRACK 08 AUDIO
    TITLE "0:"
    INDEX 01 00:08:30
  TRACK 09 AUDIO
    TITLE "8:cjc041_5055"
    INDEX 01 00:09:06
  TRACK 10 AUDIO
    TITLE "0:"
    INDEX 01 00:11:46
  TRACK 11 AUDIO
    TITLE "9:cjc041_5056"
    INDEX 01 00:12:24
  TRACK 12 AUDIO
    TITLE "0:"
    INDEX 01 00:13:41
  TRACK 13 AUDIO
    TITLE "7:cjc041_5057"
    INDEX 01 00:15:13
  TRACK 14 AUDIO
    TITLE "0:"
    INDEX 01 00:16:26
  TRACK 15 AUDIO
    TITLE "8:cjc041_5058"
    INDEX 01 00:17:08
  TRACK 16 AUDIO
    TITLE "0:"
    INDEX 01 00:18:29
  TRACK 17 AUDIO
    TITLE "9:cjc041_5059"
    INDEX 01 00:19:09
  TRACK 18 AUDIO
    TITLE "0:"
    INDEX 01 00:20:24
  TRACK 19 AUDIO
    TITLE "7:cjc041_5060"
    INDEX 01 00:22:03
  TRACK 20 AUDIO
    TITLE "0:"
    INDEX 01 00:23:20
  TRACK 21 AUDIO
    TITLE "8:cjc041_5061"
    INDEX 01 00:23:71
  TRACK 22 AUDIO
    TITLE "0:"
    INDEX 01 00:25:11
  TRACK 23 AUDIO
    TITLE "9:cjc041_5062"
    INDEX 01 00:25:64
  TRACK 24 AUDIO
    TITLE "0:"
    INDEX 01 00:27:06
  TRACK 25 AUDIO
    TITLE "7:cjc041_5063"
    INDEX 01 00:28:59
  TRACK 26 AUDIO
    TITLE "0:"
    INDEX 01 00:29:58
  TRACK 27 AUDIO
    TITLE "8:cjc041_5064"
    INDEX 01 00:30:38
  TRACK 28 AUDIO
    TITLE "0:"
    INDEX 01 00:32:62
  TRACK 29 AUDIO
    TITLE "9:cjc041_5065"
    INDEX 01 00:33:40
  TRACK 30 AUDIO
    TITLE "0:"
    INDEX 01 00:34:38
  TRACK 31 AUDIO
    TITLE "7:cjc041_5066"
    INDEX 01 00:36:27
  TRACK 32 AUDIO
    TITLE "0:"
    INDEX 01 00:37:38
  TRACK 33 AUDIO
    TITLE "8:cjc041_5067"
    INDEX 01 00:38:18
  TRACK 34 AUDIO
    TITLE "0:"
    INDEX 01 00:39:37
  TRACK 35 AUDIO
    TITLE "9:cjc041_5068"
    INDEX 01 00:40:13
  TRACK 36 AUDIO
    TITLE "0:"
    INDEX 01 00:41:24
  TRACK 37 AUDIO
    TITLE "7:cjc041_5069"
    INDEX 01 00:43:07
  TRACK 38 AUDIO
    TITLE "0:"
    INDEX 01 00:44:38
  TRACK 39 AUDIO
    TITLE "8:cjc041_5070"
    INDEX 01 00:45:10
  TRACK 40 AUDIO
    TITLE "0:"
    INDEX 01 00:46:31
  TRACK 41 AUDIO
    TITLE "9:cjc041_5071"
    INDEX 01 00:47:07
  TRACK 42 AUDIO
    TITLE "0:"
    INDEX 01 00:48:40
  TRACK 43 AUDIO
    TITLE "7:cjc041_5072"
    INDEX 01 00:50:19
  TRACK 44 AUDIO
    TITLE "0:"
    INDEX 01 00:51:20
  TRACK 45 AUDIO
    TITLE "8:cjc041_5073"
    INDEX 01 00:52:02
  TRACK 46 AUDIO
    TITLE "0:"
    INDEX 01 00:52:73
  TRACK 47 AUDIO
    TITLE "9:cjc041_5074"
    INDEX 01 00:53:57
  TRACK 48 AUDIO
    TITLE "0:"
    INDEX 01 00:54:56
  TRACK 49 AUDIO
    TITLE "7:cjc041_5075"
    INDEX 01 00:56:39
  TRACK 50 AUDIO
    TITLE "0:"
    INDEX 01 00:57:70
  TRACK 51 AUDIO
    TITLE "8:cjc041_5076"
    INDEX 01 00:58:50
  TRACK 52 AUDIO
    TITLE "0:"
    INDEX 01 01:00:00
  TRACK 53 AUDIO
    TITLE "9:cjc041_5077"
    INDEX 01 01:00:55
  TRACK 54 AUDIO
    TITLE "0:"
    INDEX 01 01:02:10
  TRACK 55 AUDIO
    TITLE "7:cjc041_5078"
    INDEX 01 01:03:71
  TRACK 56 AUDIO
    TITLE "0:"
    INDEX 01 01:05:32
  TRACK 57 AUDIO
    TITLE "8:cjc041_5079"
    INDEX 01 01:06:06
  TRACK 58 AUDIO
    TITLE "0:"
    INDEX 01 01:07:19
  TRACK 59 AUDIO
    TITLE "9:cjc041_5080"
    INDEX 01 01:07:72
  TRACK 60 AUDIO
    TITLE "0:"
    INDEX 01 01:09:34
  TRACK 61 AUDIO
    TITLE "7:cjc041_5081"
    INDEX 01 01:11:15
  TRACK 62 AUDIO
    TITLE "0:"
    INDEX 01 01:12:40
  TRACK 63 AUDIO
    TITLE "8:cjc041_5082"
    INDEX 01 01:13:16
  TRACK 64 AUDIO
    TITLE "0:"
    INDEX 01 01:15:56
  TRACK 65 AUDIO
    TITLE "9:cjc041_5083"
    INDEX 01 01:16:28
  TRACK 66 AUDIO
    TITLE "0:"
    INDEX 01 01:17:57
  TRACK 67 AUDIO
    TITLE "7:cjc041_5084"
    INDEX 01 01:19:34
  TRACK 68 AUDIO
    TITLE "0:"
    INDEX 01 01:20:57
  TRACK 69 AUDIO
    TITLE "8:cjc041_5085"
    INDEX 01 01:21:29
  TRACK 70 AUDIO
    TITLE "0:"
    INDEX 01 01:22:64
  TRACK 71 AUDIO
    TITLE "9:cjc041_5086"
    INDEX 01 01:23:40
  TRACK 72 AUDIO
    TITLE "0:"
    INDEX 01 01:24:63
  TRACK 73 AUDIO
    TITLE "7:cjc041_5087"
    INDEX 01 01:26:42
  TRACK 74 AUDIO
    TITLE "0:"
    INDEX 01 01:27:53
  TRACK 75 AUDIO
    TITLE "8:cjc041_5088"
    INDEX 01 01:28:29
  TRACK 76 AUDIO
    TITLE "0:"
    INDEX 01 01:30:67
  TRACK 77 AUDIO
    TITLE "9:cjc041_5089"
    INDEX 01 01:31:39
  TRACK 78 AUDIO
    TITLE "0:"
    INDEX 01 01:32:51
  TRACK 79 AUDIO
    TITLE "7:cjc041_5090"
    INDEX 01 01:34:36
  TRACK 80 AUDIO
    TITLE "0:"
    INDEX 01 01:35:49
  TRACK 81 AUDIO
    TITLE "8:cjc041_5091"
    INDEX 01 01:36:27
  TRACK 82 AUDIO
    TITLE "0:"
    INDEX 01 01:38:61
  TRACK 83 AUDIO
    TITLE "9:cjc041_5092"
    INDEX 01 01:39:37
  TRACK 84 AUDIO
    TITLE "0:"
    INDEX 01 01:40:54
  TRACK 85 AUDIO
    TITLE "7:cjc041_5093"
    INDEX 01 01:42:37
  TRACK 86 AUDIO
    TITLE "0:"
    INDEX 01 01:43:49
  TRACK 87 AUDIO
    TITLE "8:cjc041_5094"
    INDEX 01 01:44:21
  TRACK 88 AUDIO
    TITLE "0:"
    INDEX 01 01:45:53
  TRACK 89 AUDIO
    TITLE "9:cjc041_5095"
    INDEX 01 01:46:31
  TRACK 90 AUDIO
    TITLE "0:"
    INDEX 01 01:47:46
  TRACK 91 AUDIO
    TITLE "7:cjc041_5096"
    INDEX 01 01:49:26
  TRACK 92 AUDIO
    TITLE "0:"
    INDEX 01 01:50:39
  TRACK 93 AUDIO
    TITLE "8:cjc041_5097"
    INDEX 01 01:51:23
  TRACK 94 AUDIO
    TITLE "0:"
    INDEX 01 01:52:69
  TRACK 95 AUDIO
    TITLE "9:cjc041_5098"
    INDEX 01 01:53:45
  TRACK 96 AUDIO
    TITLE "0:"
    INDEX 01 01:54:62
